<?xml version="1.0" standalone="no"?>
<!DOCTYPE svg PUBLIC "-//W3C//DTD SVG 20010904//EN"
 "http://www.w3.org/TR/2001/REC-SVG-20010904/DTD/svg10.dtd">
<svg version="1.0" xmlns="http://www.w3.org/2000/svg"
 width="600.000000pt" height="600.000000pt" viewBox="0 0 600.000000 600.000000"
 preserveAspectRatio="xMidYMid meet">
<metadata>
Created by potrace 1.11, written by Peter Selinger 2001-2013
</metadata>
<g transform="translate(0.000000,600.000000) scale(0.100000,-0.100000)"
fill="#000000" stroke="none">
<path d="M3235 2930 l0 -980 697 0 698 0 0 200 0 200 -454 0 -454 0 -7 128
c-4 70 -6 421 -3 780 l5 652 -241 0 -241 0 0 -980z"/>
<path d="M2175 3465 c-83 -19 -236 -75 -323 -119 -39 -20 -76 -36 -82 -36 -6
0 -10 29 -10 70 l0 70 -217 -2 -218 -3 0 -747 0 -748 223 0 222 0 0 525 0 525
60 30 c225 114 405 118 460 10 35 -69 42 -183 38 -651 l-3 -439 223 0 223 0
-3 598 c-4 665 -2 645 -74 753 -45 67 -112 123 -184 151 -69 27 -244 34 -335
13z"/>
</g>
</svg>
